<?xml version="1.0" encoding="utf-8"?>
<!DOCTYPE svg PUBLIC "-//W3C//DTD SVG 1.1//EN" "http://www.w3.org/Graphics/SVG/1.1/DTD/svg11.dtd">
<svg version="1.1" id="Layer_1" xmlns="http://www.w3.org/2000/svg" xmlns:xlink="http://www.w3.org/1999/xlink" x="0px" y="0px" width="400px" height="400px" viewBox="0 0 80 80">
  <defs>
    <style>
      .de33e987-7f76-4cc3-a22c-7eb5901fa1bd {
        fill: #fff;
      }

      .c03c7ef7-2ca0-4e35-a105-9a2ce00dfea6 {
        fill: #951b81;
      }
    </style>
  </defs>
  <title>logo2</title>
  <circle class="de33e987-7f76-4cc3-a22c-7eb5901fa1bd" cx="11.4" cy="11.4" r="11.4"/>
  <g>
    <path class="c03c7ef7-2ca0-4e35-a105-9a2ce00dfea6" d="M14.6,10.6l-1.9,3.7c-.3.5.6,1,.9.5l1.8-3.7c.3-.6-.6-1-.8-.5Z" transform="translate(-1.6 -1.6)"/>
    <path class="c03c7ef7-2ca0-4e35-a105-9a2ce00dfea6" d="M13.4,16.4a2.5,2.5,0,0,0,2-.9,2.8,2.8,0,0,0,.2-2.2c-.1-.6-1-.3-.9.3a1.7,1.7,0,0,1-.1,1.4,2.7,2.7,0,0,1-1.4.5.5.5,0,1,0,.2.9Z" transform="translate(-1.6 -1.6)"/>
    <path class="c03c7ef7-2ca0-4e35-a105-9a2ce00dfea6" d="M9.5,7.8l-1,2A4.5,4.5,0,0,0,7.7,12c.1.7,1,1.1,1.6,1.3s1.4-.7,1.8-1.4-.6-1-.9-.5l-.3.6c-.2.5-.2.4-.7.2s-.5-.2-.5-.5a.8.8,0,0,1,.2-.5l1.5-3c.2-.5-.6-1-.9-.4Z" transform="translate(-1.6 -1.6)"/>
    <path class="c03c7ef7-2ca0-4e35-a105-9a2ce00dfea6" d="M10.1,11.7c-.3.5-.6,1.2-.3,1.7a2.3,2.3,0,0,0,1.1.8,1.2,1.2,0,0,0,1.3.1c.4-.3.6-.9.9-1.3s-.6-1.1-.9-.5l-.3.6-.3.4h.1l-.3-.2c-.2-.1-.7-.2-.8-.4h0c.1-.1.1-.2.1-.4s.2-.2.2-.3-.5-1.1-.8-.5Z" transform="translate(-1.6 -1.6)"/>
    <path class="c03c7ef7-2ca0-4e35-a105-9a2ce00dfea6" d="M10.2,8.5a4.1,4.1,0,0,0,.5-.9c.2-.6-.3-.2-.3-.2s1.2.6,1.7.8L17,10.7l1.7.9c.2.1,0-.7-.1-.5a3,3,0,0,0-.4.8,45.2,45.2,0,0,0-2.5,4.9,9.1,9.1,0,0,1-.7,1.4c.3-.5.9,0,.4-.3l-.7-.3a43,43,0,0,0-4.8-2.4L6.1,13.3s-.2.7.2.3l.6-1.1.9-2a.4.4,0,1,0-.8-.4L5.3,13.4c-.1.2-.1.6.2.7l9.7,4.8a.4.4,0,0,0,.6-.2l3.7-7.2a.6.6,0,0,0-.2-.7L10.7,6.5a.4.4,0,0,0-.6.2L9.4,8c-.3.6.6,1.1.8.5Z" transform="translate(-1.6 -1.6)"/>
    <path class="c03c7ef7-2ca0-4e35-a105-9a2ce00dfea6" d="M18.3,9.8l2.3,1.1-.2-.6L15.2,20.7l.7-.2L9.2,17.1c-.6-.2-1,.6-.5.9l6.7,3.3a.4.4,0,0,0,.6-.2l5.3-10.3a.6.6,0,0,0-.2-.7L18.8,9c-.5-.3-1,.5-.5.8Z" transform="translate(-1.6 -1.6)"/>
    <path class="c03c7ef7-2ca0-4e35-a105-9a2ce00dfea6" d="M17.3,9.3h.1a.5.5,0,0,0,.5-.8h-.1c-.6-.3-1.1.5-.5.8Z" transform="translate(-1.6 -1.6)"/>
    <path class="c03c7ef7-2ca0-4e35-a105-9a2ce00dfea6" d="M6.5,13.2l3.9-7.9-.6.2,6.6,3.4c.6.2,1.1-.6.5-.9L10.3,4.7c-.3-.1-.6-.1-.7.2L5.7,12.7c-.3.5.5,1,.8.5Z" transform="translate(-1.6 -1.6)"/>
    <path class="c03c7ef7-2ca0-4e35-a105-9a2ce00dfea6" d="M8.4,16.7,5,15.1a.4.4,0,1,0-.4.8l3.3,1.7c.6.2,1.1-.6.5-.9Z" transform="translate(-1.6 -1.6)"/>
  </g>
</svg>
